<mxfile host="Electron" modified="2024-03-21T15:27:59.655Z" agent="Mozilla/5.0 (Windows NT 10.0; Win64; x64) AppleWebKit/537.36 (KHTML, like Gecko) draw.io/23.1.5 Chrome/120.0.6099.109 Electron/28.1.0 Safari/537.36" etag="_SryOcktXkB9paey5rPK" version="23.1.5" type="device">
  <diagram name="Page-1" id="sb1x1uNqk66IL7ei8Ska">
    <mxGraphModel dx="2919" dy="2103" grid="1" gridSize="10" guides="1" tooltips="1" connect="1" arrows="1" fold="1" page="1" pageScale="1" pageWidth="850" pageHeight="1100" math="0" shadow="0">
      <root>
        <mxCell id="0" />
        <mxCell id="1" parent="0" />
        <mxCell id="lFZ7ymjuMMFTTok9gCtP-1" value="User" style="rounded=0;whiteSpace=wrap;html=1;" parent="1" vertex="1">
          <mxGeometry x="40" y="240" width="120" height="60" as="geometry" />
        </mxCell>
        <mxCell id="lFZ7ymjuMMFTTok9gCtP-2" value="Product" style="rounded=0;whiteSpace=wrap;html=1;" parent="1" vertex="1">
          <mxGeometry x="650" y="240" width="120" height="60" as="geometry" />
        </mxCell>
        <mxCell id="lFZ7ymjuMMFTTok9gCtP-3" value="AddToCart" style="rhombus;whiteSpace=wrap;html=1;" parent="1" vertex="1">
          <mxGeometry x="350" y="295" width="80" height="80" as="geometry" />
        </mxCell>
        <mxCell id="lFZ7ymjuMMFTTok9gCtP-8" value="Quantity" style="ellipse;whiteSpace=wrap;html=1;" parent="1" vertex="1">
          <mxGeometry x="345" y="415" width="90" height="50" as="geometry" />
        </mxCell>
        <mxCell id="lFZ7ymjuMMFTTok9gCtP-10" value="Category" style="rounded=0;whiteSpace=wrap;html=1;" parent="1" vertex="1">
          <mxGeometry x="425" y="-70" width="120" height="60" as="geometry" />
        </mxCell>
        <mxCell id="lFZ7ymjuMMFTTok9gCtP-11" value="Has" style="rhombus;whiteSpace=wrap;html=1;" parent="1" vertex="1">
          <mxGeometry x="575" y="70" width="80" height="80" as="geometry" />
        </mxCell>
        <mxCell id="lFZ7ymjuMMFTTok9gCtP-14" value="Order" style="rounded=0;whiteSpace=wrap;html=1;" parent="1" vertex="1">
          <mxGeometry x="340" y="540" width="110" height="40" as="geometry" />
        </mxCell>
        <mxCell id="lFZ7ymjuMMFTTok9gCtP-17" value="" style="endArrow=none;html=1;rounded=0;exitX=1;exitY=0;exitDx=0;exitDy=0;entryX=0.5;entryY=1;entryDx=0;entryDy=0;" parent="1" source="lFZ7ymjuMMFTTok9gCtP-14" target="lFZ7ymjuMMFTTok9gCtP-16" edge="1">
          <mxGeometry width="50" height="50" relative="1" as="geometry">
            <mxPoint x="550" y="520" as="sourcePoint" />
            <mxPoint x="600" y="470" as="targetPoint" />
          </mxGeometry>
        </mxCell>
        <mxCell id="lFZ7ymjuMMFTTok9gCtP-18" value="" style="endArrow=none;html=1;rounded=0;entryX=0.5;entryY=1;entryDx=0;entryDy=0;" parent="1" target="lFZ7ymjuMMFTTok9gCtP-2" edge="1">
          <mxGeometry width="50" height="50" relative="1" as="geometry">
            <mxPoint x="630" y="400" as="sourcePoint" />
            <mxPoint x="786.5" y="326" as="targetPoint" />
          </mxGeometry>
        </mxCell>
        <mxCell id="lFZ7ymjuMMFTTok9gCtP-16" value="Contains" style="rhombus;whiteSpace=wrap;html=1;rotation=25;" parent="1" vertex="1">
          <mxGeometry x="580" y="390" width="80" height="80" as="geometry" />
        </mxCell>
        <mxCell id="lFZ7ymjuMMFTTok9gCtP-19" value="" style="endArrow=none;html=1;rounded=0;entryX=0.5;entryY=1;entryDx=0;entryDy=0;exitX=0.5;exitY=0;exitDx=0;exitDy=0;" parent="1" source="lFZ7ymjuMMFTTok9gCtP-15" edge="1">
          <mxGeometry width="50" height="50" relative="1" as="geometry">
            <mxPoint x="30" y="400" as="sourcePoint" />
            <mxPoint x="110" y="300" as="targetPoint" />
          </mxGeometry>
        </mxCell>
        <mxCell id="lFZ7ymjuMMFTTok9gCtP-20" value="" style="endArrow=none;html=1;rounded=0;exitX=0;exitY=0;exitDx=0;exitDy=0;entryX=0.5;entryY=1;entryDx=0;entryDy=0;" parent="1" source="lFZ7ymjuMMFTTok9gCtP-14" edge="1">
          <mxGeometry width="50" height="50" relative="1" as="geometry">
            <mxPoint x="340" y="530" as="sourcePoint" />
            <mxPoint x="165.35276180410074" y="468.63703305156287" as="targetPoint" />
          </mxGeometry>
        </mxCell>
        <mxCell id="lFZ7ymjuMMFTTok9gCtP-21" value="" style="endArrow=none;html=1;rounded=0;exitX=0.936;exitY=0.033;exitDx=0;exitDy=0;entryX=0.5;entryY=1;entryDx=0;entryDy=0;exitPerimeter=0;" parent="1" edge="1">
          <mxGeometry width="50" height="50" relative="1" as="geometry">
            <mxPoint x="440.00000000000006" y="540.0000000000001" as="sourcePoint" />
            <mxPoint x="600.04" y="458.68" as="targetPoint" />
          </mxGeometry>
        </mxCell>
        <mxCell id="lFZ7ymjuMMFTTok9gCtP-22" value="" style="endArrow=none;html=1;rounded=0;exitX=0;exitY=0.25;exitDx=0;exitDy=0;entryX=0.5;entryY=1;entryDx=0;entryDy=0;" parent="1" source="lFZ7ymjuMMFTTok9gCtP-14" target="lFZ7ymjuMMFTTok9gCtP-15" edge="1">
          <mxGeometry width="50" height="50" relative="1" as="geometry">
            <mxPoint x="350" y="540" as="sourcePoint" />
            <mxPoint x="175" y="479" as="targetPoint" />
          </mxGeometry>
        </mxCell>
        <mxCell id="lFZ7ymjuMMFTTok9gCtP-15" value="Has" style="rhombus;whiteSpace=wrap;html=1;rotation=-15;" parent="1" vertex="1">
          <mxGeometry x="120" y="400" width="70" height="80" as="geometry" />
        </mxCell>
        <mxCell id="lFZ7ymjuMMFTTok9gCtP-23" value="1" style="text;html=1;align=center;verticalAlign=middle;resizable=0;points=[];autosize=1;strokeColor=none;fillColor=none;" parent="1" vertex="1">
          <mxGeometry x="75" y="308" width="30" height="30" as="geometry" />
        </mxCell>
        <mxCell id="lFZ7ymjuMMFTTok9gCtP-24" value="M" style="text;html=1;align=center;verticalAlign=middle;resizable=0;points=[];autosize=1;strokeColor=none;fillColor=none;" parent="1" vertex="1">
          <mxGeometry x="320" y="495" width="30" height="30" as="geometry" />
        </mxCell>
        <mxCell id="lFZ7ymjuMMFTTok9gCtP-25" value="M" style="text;html=1;align=center;verticalAlign=middle;resizable=0;points=[];autosize=1;strokeColor=none;fillColor=none;" parent="1" vertex="1">
          <mxGeometry x="440" y="495" width="30" height="30" as="geometry" />
        </mxCell>
        <mxCell id="lFZ7ymjuMMFTTok9gCtP-26" value="M" style="text;html=1;align=center;verticalAlign=middle;resizable=0;points=[];autosize=1;strokeColor=none;fillColor=none;" parent="1" vertex="1">
          <mxGeometry x="660" y="380" width="30" height="30" as="geometry" />
        </mxCell>
        <mxCell id="lFZ7ymjuMMFTTok9gCtP-27" value="Quantity" style="ellipse;whiteSpace=wrap;html=1;rotation=-50;" parent="1" vertex="1">
          <mxGeometry x="650" y="460" width="90" height="50" as="geometry" />
        </mxCell>
        <mxCell id="lFZ7ymjuMMFTTok9gCtP-31" value="" style="endArrow=none;html=1;rounded=0;exitX=0.568;exitY=-0.038;exitDx=0;exitDy=0;exitPerimeter=0;entryX=1;entryY=0.5;entryDx=0;entryDy=0;" parent="1" source="lFZ7ymjuMMFTTok9gCtP-27" target="lFZ7ymjuMMFTTok9gCtP-16" edge="1">
          <mxGeometry width="50" height="50" relative="1" as="geometry">
            <mxPoint x="610" y="495" as="sourcePoint" />
            <mxPoint x="660" y="445" as="targetPoint" />
          </mxGeometry>
        </mxCell>
        <mxCell id="lFZ7ymjuMMFTTok9gCtP-32" value="" style="endArrow=none;html=1;rounded=0;entryX=0.5;entryY=1;entryDx=0;entryDy=0;exitX=0;exitY=0.5;exitDx=0;exitDy=0;" parent="1" source="lFZ7ymjuMMFTTok9gCtP-3" edge="1">
          <mxGeometry width="50" height="50" relative="1" as="geometry">
            <mxPoint x="195" y="371" as="sourcePoint" />
            <mxPoint x="160" y="270" as="targetPoint" />
          </mxGeometry>
        </mxCell>
        <mxCell id="lFZ7ymjuMMFTTok9gCtP-33" value="" style="endArrow=none;html=1;rounded=0;entryX=1;entryY=0.5;entryDx=0;entryDy=0;exitX=0;exitY=0.5;exitDx=0;exitDy=0;" parent="1" source="lFZ7ymjuMMFTTok9gCtP-2" target="lFZ7ymjuMMFTTok9gCtP-3" edge="1">
          <mxGeometry width="50" height="50" relative="1" as="geometry">
            <mxPoint x="640" y="270" as="sourcePoint" />
            <mxPoint x="455" y="269.5" as="targetPoint" />
          </mxGeometry>
        </mxCell>
        <mxCell id="lFZ7ymjuMMFTTok9gCtP-34" value="M" style="text;html=1;align=center;verticalAlign=middle;resizable=0;points=[];autosize=1;strokeColor=none;fillColor=none;" parent="1" vertex="1">
          <mxGeometry x="170" y="245" width="30" height="30" as="geometry" />
        </mxCell>
        <mxCell id="lFZ7ymjuMMFTTok9gCtP-35" value="M" style="text;html=1;align=center;verticalAlign=middle;resizable=0;points=[];autosize=1;strokeColor=none;fillColor=none;" parent="1" vertex="1">
          <mxGeometry x="610" y="240" width="30" height="30" as="geometry" />
        </mxCell>
        <mxCell id="UEMCLU_fas6m71xYUTo0-1" value="" style="endArrow=none;html=1;rounded=0;" parent="1" target="UEMCLU_fas6m71xYUTo0-2" edge="1">
          <mxGeometry width="50" height="50" relative="1" as="geometry">
            <mxPoint x="40" y="240" as="sourcePoint" />
            <mxPoint x="-10" y="190" as="targetPoint" />
          </mxGeometry>
        </mxCell>
        <mxCell id="UEMCLU_fas6m71xYUTo0-2" value="ID" style="ellipse;whiteSpace=wrap;html=1;" parent="1" vertex="1">
          <mxGeometry x="-70" y="130" width="110" height="50" as="geometry" />
        </mxCell>
        <mxCell id="UEMCLU_fas6m71xYUTo0-3" value="FirstName" style="ellipse;whiteSpace=wrap;html=1;" parent="1" vertex="1">
          <mxGeometry x="45" y="130" width="110" height="50" as="geometry" />
        </mxCell>
        <mxCell id="UEMCLU_fas6m71xYUTo0-4" value="LastName" style="ellipse;whiteSpace=wrap;html=1;" parent="1" vertex="1">
          <mxGeometry x="-150" y="175" width="110" height="40" as="geometry" />
        </mxCell>
        <mxCell id="UEMCLU_fas6m71xYUTo0-5" value="Password" style="ellipse;whiteSpace=wrap;html=1;" parent="1" vertex="1">
          <mxGeometry x="-170" y="270" width="110" height="40" as="geometry" />
        </mxCell>
        <mxCell id="UEMCLU_fas6m71xYUTo0-6" value="UserName" style="ellipse;whiteSpace=wrap;html=1;" parent="1" vertex="1">
          <mxGeometry x="-170" y="220" width="110" height="40" as="geometry" />
        </mxCell>
        <mxCell id="UEMCLU_fas6m71xYUTo0-7" value="Email" style="ellipse;whiteSpace=wrap;html=1;" parent="1" vertex="1">
          <mxGeometry x="-170" y="315" width="110" height="40" as="geometry" />
        </mxCell>
        <mxCell id="UEMCLU_fas6m71xYUTo0-8" value="Phone" style="ellipse;whiteSpace=wrap;html=1;" parent="1" vertex="1">
          <mxGeometry x="-170" y="360" width="110" height="40" as="geometry" />
        </mxCell>
        <mxCell id="UEMCLU_fas6m71xYUTo0-10" value="" style="endArrow=none;html=1;rounded=0;entryX=0.952;entryY=0.767;entryDx=0;entryDy=0;entryPerimeter=0;" parent="1" source="lFZ7ymjuMMFTTok9gCtP-1" target="UEMCLU_fas6m71xYUTo0-4" edge="1">
          <mxGeometry width="50" height="50" relative="1" as="geometry">
            <mxPoint x="10" y="270" as="sourcePoint" />
            <mxPoint x="-40" y="220" as="targetPoint" />
          </mxGeometry>
        </mxCell>
        <mxCell id="UEMCLU_fas6m71xYUTo0-11" value="" style="endArrow=none;html=1;rounded=0;exitX=0;exitY=0.5;exitDx=0;exitDy=0;entryX=1;entryY=0.5;entryDx=0;entryDy=0;" parent="1" source="lFZ7ymjuMMFTTok9gCtP-1" target="UEMCLU_fas6m71xYUTo0-6" edge="1">
          <mxGeometry width="50" height="50" relative="1" as="geometry">
            <mxPoint x="40" y="310" as="sourcePoint" />
            <mxPoint x="-40" y="281" as="targetPoint" />
          </mxGeometry>
        </mxCell>
        <mxCell id="UEMCLU_fas6m71xYUTo0-12" value="" style="endArrow=none;html=1;rounded=0;exitX=0;exitY=0.75;exitDx=0;exitDy=0;entryX=1.018;entryY=0.3;entryDx=0;entryDy=0;entryPerimeter=0;" parent="1" source="lFZ7ymjuMMFTTok9gCtP-1" target="UEMCLU_fas6m71xYUTo0-7" edge="1">
          <mxGeometry width="50" height="50" relative="1" as="geometry">
            <mxPoint x="40" y="327" as="sourcePoint" />
            <mxPoint x="-40" y="338" as="targetPoint" />
          </mxGeometry>
        </mxCell>
        <mxCell id="UEMCLU_fas6m71xYUTo0-13" value="" style="endArrow=none;html=1;rounded=0;exitX=0;exitY=1;exitDx=0;exitDy=0;entryX=1;entryY=0.5;entryDx=0;entryDy=0;" parent="1" source="lFZ7ymjuMMFTTok9gCtP-1" target="UEMCLU_fas6m71xYUTo0-8" edge="1">
          <mxGeometry width="50" height="50" relative="1" as="geometry">
            <mxPoint x="40" y="352" as="sourcePoint" />
            <mxPoint x="-40" y="390" as="targetPoint" />
          </mxGeometry>
        </mxCell>
        <mxCell id="UEMCLU_fas6m71xYUTo0-14" value="" style="endArrow=none;html=1;rounded=0;exitX=0.114;exitY=0;exitDx=0;exitDy=0;exitPerimeter=0;entryX=0.267;entryY=0.973;entryDx=0;entryDy=0;entryPerimeter=0;" parent="1" source="lFZ7ymjuMMFTTok9gCtP-1" target="UEMCLU_fas6m71xYUTo0-3" edge="1">
          <mxGeometry width="50" height="50" relative="1" as="geometry">
            <mxPoint x="115" y="230" as="sourcePoint" />
            <mxPoint x="65" y="180" as="targetPoint" />
          </mxGeometry>
        </mxCell>
        <mxCell id="UEMCLU_fas6m71xYUTo0-15" value="" style="endArrow=none;html=1;rounded=0;exitX=0;exitY=1;exitDx=0;exitDy=0;entryX=0.952;entryY=0.142;entryDx=0;entryDy=0;entryPerimeter=0;" parent="1" target="UEMCLU_fas6m71xYUTo0-16" edge="1">
          <mxGeometry width="50" height="50" relative="1" as="geometry">
            <mxPoint x="60" y="303" as="sourcePoint" />
            <mxPoint x="-10" y="415" as="targetPoint" />
          </mxGeometry>
        </mxCell>
        <mxCell id="UEMCLU_fas6m71xYUTo0-16" value="Address" style="ellipse;whiteSpace=wrap;html=1;" parent="1" vertex="1">
          <mxGeometry x="-150" y="410" width="110" height="40" as="geometry" />
        </mxCell>
        <mxCell id="UEMCLU_fas6m71xYUTo0-17" value="Name" style="ellipse;whiteSpace=wrap;html=1;" parent="1" vertex="1">
          <mxGeometry x="850" y="190" width="110" height="40" as="geometry" />
        </mxCell>
        <mxCell id="UEMCLU_fas6m71xYUTo0-18" value="ArabicName" style="ellipse;whiteSpace=wrap;html=1;" parent="1" vertex="1">
          <mxGeometry x="860" y="240" width="110" height="40" as="geometry" />
        </mxCell>
        <mxCell id="UEMCLU_fas6m71xYUTo0-19" value="Price" style="ellipse;whiteSpace=wrap;html=1;" parent="1" vertex="1">
          <mxGeometry x="860" y="290" width="110" height="40" as="geometry" />
        </mxCell>
        <mxCell id="UEMCLU_fas6m71xYUTo0-20" value="Stock" style="ellipse;whiteSpace=wrap;html=1;" parent="1" vertex="1">
          <mxGeometry x="860" y="380" width="110" height="40" as="geometry" />
        </mxCell>
        <mxCell id="UEMCLU_fas6m71xYUTo0-22" value="ID" style="ellipse;whiteSpace=wrap;html=1;" parent="1" vertex="1">
          <mxGeometry x="840" y="130" width="110" height="50" as="geometry" />
        </mxCell>
        <mxCell id="UEMCLU_fas6m71xYUTo0-23" value="" style="endArrow=none;html=1;rounded=0;exitX=0.942;exitY=0.011;exitDx=0;exitDy=0;exitPerimeter=0;entryX=0;entryY=0.5;entryDx=0;entryDy=0;" parent="1" source="lFZ7ymjuMMFTTok9gCtP-2" target="UEMCLU_fas6m71xYUTo0-22" edge="1">
          <mxGeometry width="50" height="50" relative="1" as="geometry">
            <mxPoint x="790" y="200" as="sourcePoint" />
            <mxPoint x="810" y="139" as="targetPoint" />
          </mxGeometry>
        </mxCell>
        <mxCell id="UEMCLU_fas6m71xYUTo0-24" value="" style="endArrow=none;html=1;rounded=0;exitX=1;exitY=0;exitDx=0;exitDy=0;entryX=0;entryY=0.5;entryDx=0;entryDy=0;" parent="1" source="lFZ7ymjuMMFTTok9gCtP-2" target="UEMCLU_fas6m71xYUTo0-17" edge="1">
          <mxGeometry width="50" height="50" relative="1" as="geometry">
            <mxPoint x="803" y="282" as="sourcePoint" />
            <mxPoint x="850" y="180" as="targetPoint" />
          </mxGeometry>
        </mxCell>
        <mxCell id="UEMCLU_fas6m71xYUTo0-25" value="" style="endArrow=none;html=1;rounded=0;exitX=1;exitY=0;exitDx=0;exitDy=0;entryX=0;entryY=0.5;entryDx=0;entryDy=0;" parent="1" target="UEMCLU_fas6m71xYUTo0-19" edge="1">
          <mxGeometry width="50" height="50" relative="1" as="geometry">
            <mxPoint x="770" y="260" as="sourcePoint" />
            <mxPoint x="850" y="200" as="targetPoint" />
          </mxGeometry>
        </mxCell>
        <mxCell id="UEMCLU_fas6m71xYUTo0-26" value="" style="endArrow=none;html=1;rounded=0;exitX=1;exitY=0;exitDx=0;exitDy=0;entryX=0;entryY=0.5;entryDx=0;entryDy=0;" parent="1" target="UEMCLU_fas6m71xYUTo0-20" edge="1">
          <mxGeometry width="50" height="50" relative="1" as="geometry">
            <mxPoint x="770" y="290" as="sourcePoint" />
            <mxPoint x="850" y="270" as="targetPoint" />
          </mxGeometry>
        </mxCell>
        <mxCell id="UEMCLU_fas6m71xYUTo0-29" value="Description" style="ellipse;whiteSpace=wrap;html=1;" parent="1" vertex="1">
          <mxGeometry x="840" y="430" width="110" height="40" as="geometry" />
        </mxCell>
        <mxCell id="UEMCLU_fas6m71xYUTo0-30" value="" style="endArrow=none;html=1;rounded=0;exitX=1;exitY=0;exitDx=0;exitDy=0;entryX=0;entryY=0.25;entryDx=0;entryDy=0;entryPerimeter=0;" parent="1" target="UEMCLU_fas6m71xYUTo0-29" edge="1">
          <mxGeometry width="50" height="50" relative="1" as="geometry">
            <mxPoint x="760" y="300" as="sourcePoint" />
            <mxPoint x="840" y="310" as="targetPoint" />
          </mxGeometry>
        </mxCell>
        <mxCell id="UEMCLU_fas6m71xYUTo0-31" value="ID" style="ellipse;whiteSpace=wrap;html=1;" parent="1" vertex="1">
          <mxGeometry x="230" y="-20" width="110" height="50" as="geometry" />
        </mxCell>
        <mxCell id="UEMCLU_fas6m71xYUTo0-32" value="Name" style="ellipse;whiteSpace=wrap;html=1;" parent="1" vertex="1">
          <mxGeometry x="250" y="-90" width="110" height="40" as="geometry" />
        </mxCell>
        <mxCell id="UEMCLU_fas6m71xYUTo0-33" value="" style="endArrow=none;html=1;rounded=0;exitX=0;exitY=0.25;exitDx=0;exitDy=0;" parent="1" source="lFZ7ymjuMMFTTok9gCtP-10" target="UEMCLU_fas6m71xYUTo0-32" edge="1">
          <mxGeometry width="50" height="50" relative="1" as="geometry">
            <mxPoint x="570" y="-60" as="sourcePoint" />
            <mxPoint x="570" y="-82" as="targetPoint" />
          </mxGeometry>
        </mxCell>
        <mxCell id="UEMCLU_fas6m71xYUTo0-34" value="" style="endArrow=none;html=1;rounded=0;entryX=1;entryY=0.5;entryDx=0;entryDy=0;" parent="1" source="lFZ7ymjuMMFTTok9gCtP-10" target="UEMCLU_fas6m71xYUTo0-31" edge="1">
          <mxGeometry width="50" height="50" relative="1" as="geometry">
            <mxPoint x="570" y="-20" as="sourcePoint" />
            <mxPoint x="560" y="-10" as="targetPoint" />
          </mxGeometry>
        </mxCell>
        <mxCell id="UEMCLU_fas6m71xYUTo0-35" value="Status" style="ellipse;whiteSpace=wrap;html=1;" parent="1" vertex="1">
          <mxGeometry x="105" y="620" width="110" height="40" as="geometry" />
        </mxCell>
        <mxCell id="UEMCLU_fas6m71xYUTo0-36" value="Ordered_At" style="ellipse;whiteSpace=wrap;html=1;" parent="1" vertex="1">
          <mxGeometry x="170" y="720" width="110" height="40" as="geometry" />
        </mxCell>
        <mxCell id="UEMCLU_fas6m71xYUTo0-37" value="TotalPrice" style="ellipse;whiteSpace=wrap;html=1;" parent="1" vertex="1">
          <mxGeometry x="120" y="670" width="110" height="40" as="geometry" />
        </mxCell>
        <mxCell id="UEMCLU_fas6m71xYUTo0-38" value="Delivered On&lt;br&gt;" style="ellipse;whiteSpace=wrap;html=1;" parent="1" vertex="1">
          <mxGeometry x="280" y="730" width="110" height="40" as="geometry" />
        </mxCell>
        <mxCell id="UEMCLU_fas6m71xYUTo0-39" value="ID" style="ellipse;whiteSpace=wrap;html=1;" parent="1" vertex="1">
          <mxGeometry x="155" y="550" width="110" height="40" as="geometry" />
        </mxCell>
        <mxCell id="UEMCLU_fas6m71xYUTo0-40" value="Address" style="ellipse;whiteSpace=wrap;html=1;" parent="1" vertex="1">
          <mxGeometry x="400" y="740" width="110" height="40" as="geometry" />
        </mxCell>
        <mxCell id="UEMCLU_fas6m71xYUTo0-42" value="" style="endArrow=none;html=1;rounded=0;exitX=0;exitY=1;exitDx=0;exitDy=0;entryX=1;entryY=0.5;entryDx=0;entryDy=0;" parent="1" target="UEMCLU_fas6m71xYUTo0-39" edge="1">
          <mxGeometry width="50" height="50" relative="1" as="geometry">
            <mxPoint x="340" y="575" as="sourcePoint" />
            <mxPoint x="270" y="687" as="targetPoint" />
          </mxGeometry>
        </mxCell>
        <mxCell id="UEMCLU_fas6m71xYUTo0-43" value="" style="endArrow=none;html=1;rounded=0;exitX=0;exitY=1;exitDx=0;exitDy=0;entryX=0.615;entryY=0.083;entryDx=0;entryDy=0;entryPerimeter=0;" parent="1" target="UEMCLU_fas6m71xYUTo0-35" edge="1">
          <mxGeometry width="50" height="50" relative="1" as="geometry">
            <mxPoint x="340" y="580" as="sourcePoint" />
            <mxPoint x="280" y="590" as="targetPoint" />
          </mxGeometry>
        </mxCell>
        <mxCell id="UEMCLU_fas6m71xYUTo0-44" value="" style="endArrow=none;html=1;rounded=0;exitX=0.25;exitY=1;exitDx=0;exitDy=0;entryX=0.5;entryY=0;entryDx=0;entryDy=0;" parent="1" source="lFZ7ymjuMMFTTok9gCtP-14" target="UEMCLU_fas6m71xYUTo0-37" edge="1">
          <mxGeometry width="50" height="50" relative="1" as="geometry">
            <mxPoint x="370" y="590" as="sourcePoint" />
            <mxPoint x="380" y="650" as="targetPoint" />
          </mxGeometry>
        </mxCell>
        <mxCell id="UEMCLU_fas6m71xYUTo0-45" value="" style="endArrow=none;html=1;rounded=0;exitX=0.391;exitY=1.067;exitDx=0;exitDy=0;exitPerimeter=0;entryX=0.598;entryY=0.036;entryDx=0;entryDy=0;entryPerimeter=0;" parent="1" source="lFZ7ymjuMMFTTok9gCtP-14" target="UEMCLU_fas6m71xYUTo0-36" edge="1">
          <mxGeometry width="50" height="50" relative="1" as="geometry">
            <mxPoint x="419" y="580" as="sourcePoint" />
            <mxPoint x="376" y="686" as="targetPoint" />
          </mxGeometry>
        </mxCell>
        <mxCell id="UEMCLU_fas6m71xYUTo0-46" value="" style="endArrow=none;html=1;rounded=0;entryX=0.432;entryY=-0.076;entryDx=0;entryDy=0;entryPerimeter=0;" parent="1" target="UEMCLU_fas6m71xYUTo0-38" edge="1">
          <mxGeometry width="50" height="50" relative="1" as="geometry">
            <mxPoint x="430" y="580" as="sourcePoint" />
            <mxPoint x="429" y="680" as="targetPoint" />
          </mxGeometry>
        </mxCell>
        <mxCell id="UEMCLU_fas6m71xYUTo0-47" value="" style="endArrow=none;html=1;rounded=0;exitX=1;exitY=1;exitDx=0;exitDy=0;" parent="1" source="lFZ7ymjuMMFTTok9gCtP-14" target="UEMCLU_fas6m71xYUTo0-48" edge="1">
          <mxGeometry width="50" height="50" relative="1" as="geometry">
            <mxPoint x="448" y="569.5" as="sourcePoint" />
            <mxPoint x="550.31" y="640.1799999999998" as="targetPoint" />
          </mxGeometry>
        </mxCell>
        <mxCell id="UEMCLU_fas6m71xYUTo0-48" value="Customer_id" style="ellipse;whiteSpace=wrap;html=1;" parent="1" vertex="1">
          <mxGeometry x="500" y="700" width="110" height="40" as="geometry" />
        </mxCell>
        <mxCell id="UEMCLU_fas6m71xYUTo0-49" value="" style="endArrow=none;html=1;rounded=0;entryX=0.276;entryY=-0.086;entryDx=0;entryDy=0;exitX=0.857;exitY=0.987;exitDx=0;exitDy=0;entryPerimeter=0;exitPerimeter=0;" parent="1" source="lFZ7ymjuMMFTTok9gCtP-14" target="UEMCLU_fas6m71xYUTo0-40" edge="1">
          <mxGeometry width="50" height="50" relative="1" as="geometry">
            <mxPoint x="458" y="579.5" as="sourcePoint" />
            <mxPoint x="560" y="650.5" as="targetPoint" />
          </mxGeometry>
        </mxCell>
        <mxCell id="Z5yh-GieD2CqBkaMZMoz-1" value="" style="endArrow=none;html=1;rounded=0;exitX=0.5;exitY=0;exitDx=0;exitDy=0;entryX=1;entryY=0.5;entryDx=0;entryDy=0;" parent="1" source="lFZ7ymjuMMFTTok9gCtP-8" edge="1">
          <mxGeometry width="50" height="50" relative="1" as="geometry">
            <mxPoint x="442" y="426" as="sourcePoint" />
            <mxPoint x="390" y="375" as="targetPoint" />
          </mxGeometry>
        </mxCell>
        <mxCell id="Z5yh-GieD2CqBkaMZMoz-3" value="Like" style="rhombus;whiteSpace=wrap;html=1;" parent="1" vertex="1">
          <mxGeometry x="345" y="120" width="80" height="80" as="geometry" />
        </mxCell>
        <mxCell id="Z5yh-GieD2CqBkaMZMoz-5" value="" style="endArrow=none;html=1;rounded=0;entryX=0.5;entryY=1;entryDx=0;entryDy=0;exitX=0;exitY=0.5;exitDx=0;exitDy=0;" parent="1" source="Z5yh-GieD2CqBkaMZMoz-3" edge="1">
          <mxGeometry width="50" height="50" relative="1" as="geometry">
            <mxPoint x="350" y="305" as="sourcePoint" />
            <mxPoint x="160" y="240" as="targetPoint" />
          </mxGeometry>
        </mxCell>
        <mxCell id="Z5yh-GieD2CqBkaMZMoz-6" value="" style="endArrow=none;html=1;rounded=0;entryX=0;entryY=0;entryDx=0;entryDy=0;exitX=0;exitY=0.5;exitDx=0;exitDy=0;" parent="1" target="lFZ7ymjuMMFTTok9gCtP-2" edge="1">
          <mxGeometry width="50" height="50" relative="1" as="geometry">
            <mxPoint x="425" y="160" as="sourcePoint" />
            <mxPoint x="240" y="240" as="targetPoint" />
          </mxGeometry>
        </mxCell>
        <mxCell id="Z5yh-GieD2CqBkaMZMoz-8" value="M" style="text;html=1;align=center;verticalAlign=middle;resizable=0;points=[];autosize=1;strokeColor=none;fillColor=none;" parent="1" vertex="1">
          <mxGeometry x="180" y="170" width="30" height="30" as="geometry" />
        </mxCell>
        <mxCell id="Z5yh-GieD2CqBkaMZMoz-9" value="City" style="ellipse;whiteSpace=wrap;html=1;" parent="1" vertex="1">
          <mxGeometry x="-110" y="465" width="110" height="40" as="geometry" />
        </mxCell>
        <mxCell id="Z5yh-GieD2CqBkaMZMoz-10" value="" style="endArrow=none;html=1;rounded=0;exitX=0;exitY=0.75;exitDx=0;exitDy=0;entryX=1;entryY=0.5;entryDx=0;entryDy=0;" parent="1" source="lFZ7ymjuMMFTTok9gCtP-1" edge="1">
          <mxGeometry width="50" height="50" relative="1" as="geometry">
            <mxPoint x="40" y="320" as="sourcePoint" />
            <mxPoint x="-60" y="290" as="targetPoint" />
          </mxGeometry>
        </mxCell>
        <mxCell id="Z5yh-GieD2CqBkaMZMoz-11" value="" style="endArrow=none;html=1;rounded=0;exitX=0;exitY=1;exitDx=0;exitDy=0;entryX=1;entryY=0;entryDx=0;entryDy=0;" parent="1" target="Z5yh-GieD2CqBkaMZMoz-9" edge="1">
          <mxGeometry width="50" height="50" relative="1" as="geometry">
            <mxPoint x="85" y="300" as="sourcePoint" />
            <mxPoint x="-20" y="413" as="targetPoint" />
          </mxGeometry>
        </mxCell>
        <mxCell id="Z5yh-GieD2CqBkaMZMoz-12" value="" style="endArrow=none;html=1;rounded=0;entryX=0.5;entryY=1;entryDx=0;entryDy=0;" parent="1" source="lFZ7ymjuMMFTTok9gCtP-2" target="mma0YEnkMxvQZ4oxFoGM-1" edge="1">
          <mxGeometry width="50" height="50" relative="1" as="geometry">
            <mxPoint x="717.5" y="-10" as="sourcePoint" />
            <mxPoint x="532.5" y="70" as="targetPoint" />
          </mxGeometry>
        </mxCell>
        <mxCell id="Z5yh-GieD2CqBkaMZMoz-13" value="" style="endArrow=none;html=1;rounded=0;exitX=0.5;exitY=1;exitDx=0;exitDy=0;entryX=0.5;entryY=0;entryDx=0;entryDy=0;" parent="1" source="lFZ7ymjuMMFTTok9gCtP-11" target="lFZ7ymjuMMFTTok9gCtP-2" edge="1">
          <mxGeometry width="50" height="50" relative="1" as="geometry">
            <mxPoint x="712.75" y="168" as="sourcePoint" />
            <mxPoint x="710" y="230" as="targetPoint" />
          </mxGeometry>
        </mxCell>
        <mxCell id="Z5yh-GieD2CqBkaMZMoz-15" value="" style="endArrow=none;html=1;rounded=0;exitX=1;exitY=0.25;exitDx=0;exitDy=0;entryX=0;entryY=0.5;entryDx=0;entryDy=0;" parent="1" source="lFZ7ymjuMMFTTok9gCtP-2" target="UEMCLU_fas6m71xYUTo0-18" edge="1">
          <mxGeometry width="50" height="50" relative="1" as="geometry">
            <mxPoint x="780" y="250" as="sourcePoint" />
            <mxPoint x="860" y="190" as="targetPoint" />
          </mxGeometry>
        </mxCell>
        <mxCell id="Z5yh-GieD2CqBkaMZMoz-17" value="Brand" style="rounded=0;whiteSpace=wrap;html=1;" parent="1" vertex="1">
          <mxGeometry x="785" y="-70" width="120" height="60" as="geometry" />
        </mxCell>
        <mxCell id="Z5yh-GieD2CqBkaMZMoz-18" value="" style="endArrow=none;html=1;rounded=0;entryX=0.5;entryY=0;entryDx=0;entryDy=0;exitX=0;exitY=1;exitDx=0;exitDy=0;" parent="1" source="Z5yh-GieD2CqBkaMZMoz-17" target="mma0YEnkMxvQZ4oxFoGM-1" edge="1">
          <mxGeometry width="50" height="50" relative="1" as="geometry">
            <mxPoint x="770" y="-30" as="sourcePoint" />
            <mxPoint x="770" y="80" as="targetPoint" />
          </mxGeometry>
        </mxCell>
        <mxCell id="Z5yh-GieD2CqBkaMZMoz-21" value="Name" style="ellipse;whiteSpace=wrap;html=1;" parent="1" vertex="1">
          <mxGeometry x="980" y="-90" width="110" height="40" as="geometry" />
        </mxCell>
        <mxCell id="Z5yh-GieD2CqBkaMZMoz-22" value="ID" style="ellipse;whiteSpace=wrap;html=1;" parent="1" vertex="1">
          <mxGeometry x="970" y="-20" width="110" height="50" as="geometry" />
        </mxCell>
        <mxCell id="Z5yh-GieD2CqBkaMZMoz-23" value="" style="endArrow=none;html=1;rounded=0;exitX=0;exitY=0.5;exitDx=0;exitDy=0;entryX=1;entryY=0;entryDx=0;entryDy=0;" parent="1" source="Z5yh-GieD2CqBkaMZMoz-21" edge="1" target="Z5yh-GieD2CqBkaMZMoz-17">
          <mxGeometry width="50" height="50" relative="1" as="geometry">
            <mxPoint x="917" y="-50" as="sourcePoint" />
            <mxPoint x="870" y="-60" as="targetPoint" />
          </mxGeometry>
        </mxCell>
        <mxCell id="Z5yh-GieD2CqBkaMZMoz-24" value="" style="endArrow=none;html=1;rounded=0;entryX=1;entryY=0.75;entryDx=0;entryDy=0;" parent="1" source="Z5yh-GieD2CqBkaMZMoz-22" edge="1" target="Z5yh-GieD2CqBkaMZMoz-17">
          <mxGeometry width="50" height="50" relative="1" as="geometry">
            <mxPoint x="896" y="-33" as="sourcePoint" />
            <mxPoint x="860" y="-10" as="targetPoint" />
          </mxGeometry>
        </mxCell>
        <mxCell id="Z5yh-GieD2CqBkaMZMoz-26" value="Images" style="ellipse;shape=doubleEllipse;whiteSpace=wrap;html=1;" parent="1" vertex="1">
          <mxGeometry x="780" y="465" width="100" height="50" as="geometry" />
        </mxCell>
        <mxCell id="Z5yh-GieD2CqBkaMZMoz-27" value="" style="endArrow=none;html=1;rounded=0;exitX=1;exitY=0;exitDx=0;exitDy=0;entryX=0;entryY=0;entryDx=0;entryDy=0;" parent="1" target="Z5yh-GieD2CqBkaMZMoz-26" edge="1">
          <mxGeometry width="50" height="50" relative="1" as="geometry">
            <mxPoint x="730" y="300" as="sourcePoint" />
            <mxPoint x="810" y="420" as="targetPoint" />
          </mxGeometry>
        </mxCell>
        <mxCell id="Z5yh-GieD2CqBkaMZMoz-28" value="Coupon" style="rounded=0;whiteSpace=wrap;html=1;" parent="1" vertex="1">
          <mxGeometry x="790" y="590" width="110" height="40" as="geometry" />
        </mxCell>
        <mxCell id="Z5yh-GieD2CqBkaMZMoz-29" value="Use" style="rhombus;whiteSpace=wrap;html=1;rotation=0;" parent="1" vertex="1">
          <mxGeometry x="585" y="550" width="70" height="80" as="geometry" />
        </mxCell>
        <mxCell id="Z5yh-GieD2CqBkaMZMoz-30" value="" style="endArrow=none;html=1;rounded=0;exitX=1;exitY=1;exitDx=0;exitDy=0;entryX=0;entryY=0.5;entryDx=0;entryDy=0;" parent="1" target="Z5yh-GieD2CqBkaMZMoz-29" edge="1">
          <mxGeometry width="50" height="50" relative="1" as="geometry">
            <mxPoint x="450" y="565" as="sourcePoint" />
            <mxPoint x="541" y="686" as="targetPoint" />
          </mxGeometry>
        </mxCell>
        <mxCell id="Z5yh-GieD2CqBkaMZMoz-31" value="" style="endArrow=none;html=1;rounded=0;exitX=1;exitY=0.5;exitDx=0;exitDy=0;entryX=0;entryY=0.5;entryDx=0;entryDy=0;" parent="1" source="Z5yh-GieD2CqBkaMZMoz-29" target="Z5yh-GieD2CqBkaMZMoz-28" edge="1">
          <mxGeometry width="50" height="50" relative="1" as="geometry">
            <mxPoint x="655" y="590" as="sourcePoint" />
            <mxPoint x="790" y="615" as="targetPoint" />
          </mxGeometry>
        </mxCell>
        <mxCell id="Z5yh-GieD2CqBkaMZMoz-32" value="1" style="text;html=1;align=center;verticalAlign=middle;resizable=0;points=[];autosize=1;strokeColor=none;fillColor=none;" parent="1" vertex="1">
          <mxGeometry x="535" y="540" width="30" height="30" as="geometry" />
        </mxCell>
        <mxCell id="Z5yh-GieD2CqBkaMZMoz-33" value="1" style="text;html=1;align=center;verticalAlign=middle;resizable=0;points=[];autosize=1;strokeColor=none;fillColor=none;" parent="1" vertex="1">
          <mxGeometry x="730" y="560" width="30" height="30" as="geometry" />
        </mxCell>
        <mxCell id="Z5yh-GieD2CqBkaMZMoz-34" value="Percent" style="ellipse;whiteSpace=wrap;html=1;" parent="1" vertex="1">
          <mxGeometry x="860" y="335" width="110" height="40" as="geometry" />
        </mxCell>
        <mxCell id="Z5yh-GieD2CqBkaMZMoz-35" value="" style="endArrow=none;html=1;rounded=0;entryX=0.037;entryY=0.171;entryDx=0;entryDy=0;entryPerimeter=0;exitX=1;exitY=0.5;exitDx=0;exitDy=0;" parent="1" source="lFZ7ymjuMMFTTok9gCtP-2" target="Z5yh-GieD2CqBkaMZMoz-34" edge="1">
          <mxGeometry width="50" height="50" relative="1" as="geometry">
            <mxPoint x="770" y="270" as="sourcePoint" />
            <mxPoint x="860" y="320" as="targetPoint" />
          </mxGeometry>
        </mxCell>
        <mxCell id="eq_CY-uPusO2_lxlP96X-1" value="ID" style="ellipse;whiteSpace=wrap;html=1;" parent="1" vertex="1">
          <mxGeometry x="950" y="530" width="110" height="40" as="geometry" />
        </mxCell>
        <mxCell id="eq_CY-uPusO2_lxlP96X-3" value="Percent" style="ellipse;whiteSpace=wrap;html=1;" parent="1" vertex="1">
          <mxGeometry x="950" y="590" width="110" height="40" as="geometry" />
        </mxCell>
        <mxCell id="eq_CY-uPusO2_lxlP96X-4" value="StartDate" style="ellipse;whiteSpace=wrap;html=1;" parent="1" vertex="1">
          <mxGeometry x="950" y="650" width="110" height="40" as="geometry" />
        </mxCell>
        <mxCell id="eq_CY-uPusO2_lxlP96X-5" value="EndDate" style="ellipse;whiteSpace=wrap;html=1;" parent="1" vertex="1">
          <mxGeometry x="890" y="690" width="110" height="40" as="geometry" />
        </mxCell>
        <mxCell id="eq_CY-uPusO2_lxlP96X-6" value="" style="endArrow=none;html=1;rounded=0;exitX=0.024;exitY=0.742;exitDx=0;exitDy=0;entryX=1;entryY=0;entryDx=0;entryDy=0;exitPerimeter=0;" parent="1" source="eq_CY-uPusO2_lxlP96X-1" target="Z5yh-GieD2CqBkaMZMoz-28" edge="1">
          <mxGeometry width="50" height="50" relative="1" as="geometry">
            <mxPoint x="920" y="560" as="sourcePoint" />
            <mxPoint x="852" y="567" as="targetPoint" />
          </mxGeometry>
        </mxCell>
        <mxCell id="eq_CY-uPusO2_lxlP96X-7" value="" style="endArrow=none;html=1;rounded=0;entryX=1;entryY=0.5;entryDx=0;entryDy=0;" parent="1" source="eq_CY-uPusO2_lxlP96X-3" target="Z5yh-GieD2CqBkaMZMoz-28" edge="1">
          <mxGeometry width="50" height="50" relative="1" as="geometry">
            <mxPoint x="930" y="570" as="sourcePoint" />
            <mxPoint x="910" y="600" as="targetPoint" />
          </mxGeometry>
        </mxCell>
        <mxCell id="eq_CY-uPusO2_lxlP96X-9" value="" style="endArrow=none;html=1;rounded=0;entryX=1;entryY=0.5;entryDx=0;entryDy=0;exitX=0;exitY=0;exitDx=0;exitDy=0;" parent="1" source="eq_CY-uPusO2_lxlP96X-4" edge="1">
          <mxGeometry width="50" height="50" relative="1" as="geometry">
            <mxPoint x="939" y="639" as="sourcePoint" />
            <mxPoint x="900" y="630" as="targetPoint" />
          </mxGeometry>
        </mxCell>
        <mxCell id="eq_CY-uPusO2_lxlP96X-10" value="" style="endArrow=none;html=1;rounded=0;entryX=1;entryY=0.5;entryDx=0;entryDy=0;exitX=0.418;exitY=0.075;exitDx=0;exitDy=0;exitPerimeter=0;" parent="1" source="eq_CY-uPusO2_lxlP96X-5" edge="1">
          <mxGeometry width="50" height="50" relative="1" as="geometry">
            <mxPoint x="850" y="658" as="sourcePoint" />
            <mxPoint x="840" y="630" as="targetPoint" />
          </mxGeometry>
        </mxCell>
        <mxCell id="mma0YEnkMxvQZ4oxFoGM-1" value="Has" style="rhombus;whiteSpace=wrap;html=1;" vertex="1" parent="1">
          <mxGeometry x="720" y="70" width="80" height="80" as="geometry" />
        </mxCell>
        <mxCell id="mma0YEnkMxvQZ4oxFoGM-66" value="" style="endArrow=none;html=1;rounded=0;entryX=0.5;entryY=0;entryDx=0;entryDy=0;exitX=0.346;exitY=1.029;exitDx=0;exitDy=0;exitPerimeter=0;" edge="1" parent="1" target="lFZ7ymjuMMFTTok9gCtP-11">
          <mxGeometry width="50" height="50" relative="1" as="geometry">
            <mxPoint x="541" y="-10" as="sourcePoint" />
            <mxPoint x="499" y="38" as="targetPoint" />
            <Array as="points">
              <mxPoint x="590" y="40" />
            </Array>
          </mxGeometry>
        </mxCell>
        <mxCell id="mma0YEnkMxvQZ4oxFoGM-68" value="M" style="text;html=1;align=center;verticalAlign=middle;resizable=0;points=[];autosize=1;strokeColor=none;fillColor=none;" vertex="1" parent="1">
          <mxGeometry x="565" y="50" width="30" height="30" as="geometry" />
        </mxCell>
        <mxCell id="mma0YEnkMxvQZ4oxFoGM-69" value="M" style="text;html=1;align=center;verticalAlign=middle;resizable=0;points=[];autosize=1;strokeColor=none;fillColor=none;" vertex="1" parent="1">
          <mxGeometry x="770" y="40" width="30" height="30" as="geometry" />
        </mxCell>
        <mxCell id="mma0YEnkMxvQZ4oxFoGM-70" value="Has" style="rhombus;whiteSpace=wrap;html=1;" vertex="1" parent="1">
          <mxGeometry x="620" y="-80" width="80" height="80" as="geometry" />
        </mxCell>
        <mxCell id="mma0YEnkMxvQZ4oxFoGM-72" value="" style="endArrow=none;html=1;rounded=0;entryX=0;entryY=0.5;entryDx=0;entryDy=0;exitX=0.346;exitY=1.029;exitDx=0;exitDy=0;exitPerimeter=0;" edge="1" parent="1" target="mma0YEnkMxvQZ4oxFoGM-70">
          <mxGeometry width="50" height="50" relative="1" as="geometry">
            <mxPoint x="545" y="-35" as="sourcePoint" />
            <mxPoint x="619" y="45" as="targetPoint" />
          </mxGeometry>
        </mxCell>
        <mxCell id="mma0YEnkMxvQZ4oxFoGM-73" value="" style="endArrow=none;html=1;rounded=0;entryX=0;entryY=0.5;entryDx=0;entryDy=0;exitX=1;exitY=0.5;exitDx=0;exitDy=0;" edge="1" parent="1">
          <mxGeometry width="50" height="50" relative="1" as="geometry">
            <mxPoint x="700" y="-41.43" as="sourcePoint" />
            <mxPoint x="785" y="-41.43" as="targetPoint" />
          </mxGeometry>
        </mxCell>
        <mxCell id="mma0YEnkMxvQZ4oxFoGM-76" value="M" style="text;html=1;align=center;verticalAlign=middle;resizable=0;points=[];autosize=1;strokeColor=none;fillColor=none;" vertex="1" parent="1">
          <mxGeometry x="545" y="-70" width="30" height="30" as="geometry" />
        </mxCell>
        <mxCell id="mma0YEnkMxvQZ4oxFoGM-77" value="M" style="text;html=1;align=center;verticalAlign=middle;resizable=0;points=[];autosize=1;strokeColor=none;fillColor=none;" vertex="1" parent="1">
          <mxGeometry x="740" y="-70" width="30" height="30" as="geometry" />
        </mxCell>
        <mxCell id="mma0YEnkMxvQZ4oxFoGM-78" value="1" style="text;html=1;align=center;verticalAlign=middle;resizable=0;points=[];autosize=1;strokeColor=none;fillColor=none;" vertex="1" parent="1">
          <mxGeometry x="720" y="145" width="30" height="30" as="geometry" />
        </mxCell>
        <mxCell id="mma0YEnkMxvQZ4oxFoGM-79" value="1" style="text;html=1;align=center;verticalAlign=middle;resizable=0;points=[];autosize=1;strokeColor=none;fillColor=none;" vertex="1" parent="1">
          <mxGeometry x="630" y="145" width="30" height="30" as="geometry" />
        </mxCell>
        <mxCell id="mma0YEnkMxvQZ4oxFoGM-80" value="M" style="text;html=1;align=center;verticalAlign=middle;resizable=0;points=[];autosize=1;strokeColor=none;fillColor=none;" vertex="1" parent="1">
          <mxGeometry x="590" y="185" width="30" height="30" as="geometry" />
        </mxCell>
      </root>
    </mxGraphModel>
  </diagram>
</mxfile>
